# xmcd
#
# Track frame offsets:
#	150
#	8090
#	29362
#	51130
#	68660
#	93092
#	115107
#	135027
#	156462
#	175727
#	199975
#
# Disc length: 2995 seconds
#
# Revision: 1
# Processed by: cddbd v1.5.1PL0 Copyright (c) Steve Scherf et al.
# Submitted via: CDex 1.50Beta5
#
DISCID=830bb10b
DTITLE=TOPAZ - S to M
DYEAR=1991
DGENRE=Pop
TTITLE0=Spiritual&Material
TTITLE1=2 MUCH LOVE
TTITLE2=SHINE ON
TTITLE3=CHERRY
TTITLE4=PRINCESS
TTITLE5=“I”の紺碧
TTITLE6=S
TTITLE7=SWEET HEAVEN
TTITLE8=M
TTITLE9=WHY?
TTITLE10=MATERIAL LOVE
EXTD=
EXTT0=
EXTT1=
EXTT2=
EXTT3=
EXTT4=
EXTT5=
EXTT6=
EXTT7=
EXTT8=
EXTT9=
EXTT10=
PLAYORDER=
